<svg width="20" height="20" viewBox="0 0 20 20" fill="none" xmlns="http://www.w3.org/2000/svg">
<path fill-rule="evenodd" clip-rule="evenodd" d="M6.4759 1.66602H13.5228C16.1783 1.66602 18.3327 3.82039 18.3327 6.47589V13.5228C18.3327 16.1783 16.1783 18.3327 13.5228 18.3327H6.4759C3.82039 18.3327 1.66602 16.1783 1.66602 13.5228V6.47589C1.66602 3.82039 3.82039 1.66602 6.4759 1.66602ZM5.67511 10.0407C5.67511 12.4275 7.61248 14.3649 9.99934 14.3649C12.3862 14.3649 14.3236 12.4275 14.3236 10.0407C14.3236 7.65382 12.3862 5.71644 9.99934 5.71644C7.61248 5.71644 5.67511 7.65382 5.67511 10.0407ZM13.4608 5.55112C13.4608 6.10908 13.9103 6.55856 14.4682 6.55856C15.0262 6.55856 15.4757 6.10908 15.4757 5.55112C15.4757 4.99315 15.0262 4.54368 14.4682 4.54368C13.9103 4.54368 13.4608 4.99315 13.4608 5.55112ZM12.0311 8.0888C13.1319 9.18962 13.1319 10.9744 12.0311 12.0752C10.9302 13.1761 9.14547 13.1761 8.04464 12.0752C6.94382 10.9744 6.94381 9.18963 8.04464 8.08881C9.14546 6.98799 10.9303 6.98798 12.0311 8.0888Z" fill="white"/>
</svg>
