<svg width="15" height="16" viewBox="0 0 15 16" fill="none" xmlns="http://www.w3.org/2000/svg">
<path fill-rule="evenodd" clip-rule="evenodd" d="M4.85692 1.74951H10.1421C12.1337 1.74951 13.7495 3.36529 13.7495 5.35692V10.6421C13.7495 12.6337 12.1337 14.2495 10.1421 14.2495H4.85692C2.86529 14.2495 1.24951 12.6337 1.24951 10.6421V5.35692C1.24951 3.36529 2.86529 1.74951 4.85692 1.74951ZM4.25633 8.03051C4.25633 9.82065 5.70936 11.2737 7.4995 11.2737C9.28964 11.2737 10.7427 9.82065 10.7427 8.03051C10.7427 6.24037 9.28964 4.78733 7.4995 4.78733C5.70936 4.78733 4.25633 6.24037 4.25633 8.03051ZM10.0956 4.66334C10.0956 5.08181 10.4327 5.41892 10.8512 5.41892C11.2697 5.41892 11.6068 5.08181 11.6068 4.66334C11.6068 4.24486 11.2697 3.90776 10.8512 3.90776C10.4327 3.90776 10.0956 4.24486 10.0956 4.66334ZM9.02331 6.5666C9.84892 7.39222 9.84891 8.73081 9.0233 9.55643C8.19768 10.382 6.8591 10.382 6.03348 9.55642C5.20787 8.73081 5.20786 7.39222 6.03348 6.56661C6.85909 5.74099 8.19769 5.74098 9.02331 6.5666Z" fill="#FF6600"/>
</svg>
