<svg width="112" height="32" viewBox="0 0 112 32" fill="none" xmlns="http://www.w3.org/2000/svg">
<path d="M27.0307 27.1188C24.2371 29.9003 20.6561 31.4167 17.0031 31.6679C16.488 31.7031 16.1851 31.1022 16.5151 30.7078C18.4848 28.3464 21.0568 24.863 23.452 19.9383C23.5511 19.7353 23.7562 19.605 23.9825 19.605H30.4667C30.8604 19.605 31.141 19.9806 31.0325 20.3573C30.3229 22.8337 28.9886 25.1693 27.0307 27.1188Z" fill="#000022"/>
<path d="M30.9263 18.5481H24.7002C24.356 18.5481 24.1273 18.1913 24.2723 17.8803C25.3532 15.56 27.0919 11.8489 28.6466 8.53329C28.8517 8.09551 29.4659 8.08143 29.6993 8.50395C31.3224 11.4428 31.9271 14.7912 31.511 18.0352C31.4733 18.3287 31.2222 18.5481 30.9251 18.5481H30.9263Z" fill="#000022"/>
<path d="M23.4552 3.3663C20.0073 4.96952 16.1352 6.76757 13.826 7.83325C13.5137 7.97761 13.1565 7.74992 13.1565 7.40722V1.12813C13.1565 0.835885 13.3734 0.587068 13.6645 0.54599C17.0027 0.0694836 20.4659 0.662183 23.4964 2.32409C23.916 2.55413 23.8901 3.16443 23.4563 3.3663H23.4552Z" fill="#000022"/>
<path d="M11.7672 8.68384C6.94614 11.0312 3.52071 13.5146 1.18563 15.4441C0.78839 15.7728 0.184874 15.4711 0.220236 14.9582C0.472487 11.3199 1.99542 7.75313 4.78904 4.97273C6.68328 3.08665 8.93939 1.78272 11.3358 1.05974C11.7153 0.945896 12.0984 1.2264 12.0984 1.62192V8.15687C12.0984 8.38104 11.9688 8.58526 11.766 8.68502L11.7672 8.68384Z" fill="#000022"/>
<path d="M9.06794 29.3865C8.92178 29.7221 8.54576 29.8923 8.22632 29.7139C6.99454 29.0273 5.83583 28.1612 4.78911 27.1189C3.66341 25.9981 2.74399 24.7493 2.03085 23.4196C1.85994 23.1003 2.02967 22.7236 2.3668 22.5898C4.91995 21.584 7.92103 20.5852 10.7807 20.2354C11.1861 20.1861 11.5103 20.5112 11.4643 20.9161C11.1767 23.4466 10.1288 26.9488 9.06794 29.3853V29.3865Z" fill="#000022"/>
<path d="M22.4103 18.48C19.2842 18.6701 16.19 18.7346 13.2644 19.0985C12.8849 19.1454 12.5607 18.825 12.6078 18.4459C12.9603 15.6373 13.123 12.6868 13.2585 9.66928C13.2691 9.4322 13.3905 9.23502 13.598 9.13878C16.8678 7.63063 25.1225 3.75872 29.5275 1.70834C30.0261 1.47595 30.5436 1.99119 30.3102 2.48882C28.2875 6.79498 24.4129 14.9848 22.9431 18.1408C22.8464 18.3485 22.6967 18.4612 22.4091 18.4788L22.4103 18.48Z" fill="#000022"/>
<path d="M43.0638 9.50652L44.2192 8.59244L49.3911 13.7629H52.8294L46.1483 7.06666L52.5455 2.00391H49.3015L43.0638 6.81758V2.00391H40.4923V13.7629H43.0638V9.50652Z" fill="#000022"/>
<path d="M56.2606 2.00391H53.6648V13.7629H56.2606V2.00391Z" fill="#000022"/>
<path d="M62.5554 13.7629H65.1501V4.12748H69.8717V2.00391H57.8349V4.12748H62.5554V13.7629Z" fill="#000022"/>
<path d="M81.5432 11.7274H73.9674V8.73146H80.6915V6.81758H73.9674V4.09504H81.4385V2.00391H71.51V13.7629H81.5432V11.7274Z" fill="#000022"/>
<path d="M46.8685 26.0804H51.3133V27.6305C51.0375 27.7973 50.5349 27.9943 49.8041 28.2202C49.0746 28.4415 48.131 28.5515 46.9733 28.5515C45.5293 28.5515 44.353 28.2121 43.4454 27.5343C42.5425 26.8554 42.091 25.8243 42.091 24.4411V24.2395C42.091 22.9153 42.5402 21.9271 43.4373 21.276C44.3355 20.6191 45.4816 20.2901 46.8767 20.2901C48.131 20.2901 49.0909 20.4546 49.7564 20.7824C50.422 21.1057 50.8432 21.5899 51.0224 22.2364L51.0468 22.3418H53.5286L53.4961 22.0916C53.3285 20.8265 52.6909 19.873 51.582 19.2323C50.479 18.5917 48.935 18.2719 46.95 18.2719C44.8254 18.2719 43.0382 18.7747 41.5884 19.7826C40.1433 20.7824 39.4219 22.2735 39.4219 24.2545V24.375C39.4219 26.4476 40.1363 27.9908 41.5628 29.0033C42.9963 30.0101 44.78 30.5141 46.9162 30.5141C48.7325 30.5141 50.1963 30.3125 51.304 29.9082C52.4128 29.5038 53.2366 29.0821 53.7776 28.6407V24.2638L46.8662 24.2719V26.0815L46.8685 26.0804Z" fill="#000022"/>
<path d="M65.7831 25.0783C66.4963 24.3843 66.8535 23.4447 66.8535 22.2596C66.8535 21.0744 66.5068 20.1754 65.8156 19.5139C65.1233 18.8465 64.1448 18.5129 62.8789 18.5129H55.6765V30.2719H58.248V26.129H62.3134L64.8906 30.2719H67.7867L64.7591 25.7641C65.1454 25.595 65.4875 25.3667 65.7831 25.0783ZM58.248 20.4754H62.4332C63.0231 20.4754 63.4746 20.6481 63.7876 20.9921C64.1017 21.3316 64.2577 21.7915 64.2577 22.3731C64.2577 22.9547 64.1006 23.3984 63.7876 23.7541C63.4792 24.1039 63.0278 24.2789 62.4332 24.2789H58.248V20.4754Z" fill="#000022"/>
<path d="M80.8544 19.8209C79.4 18.7875 77.6151 18.2708 75.5009 18.2708C73.3868 18.2708 71.6019 18.7875 70.1638 19.8209C68.7256 20.8496 68.0066 22.3268 68.0066 24.2545V24.375C68.0066 26.3781 68.7256 27.9016 70.1638 28.9466C71.6019 29.9916 73.381 30.5129 75.5009 30.5129C77.6209 30.5129 79.4 29.9904 80.8544 28.9466C82.3146 27.9016 83.0442 26.3781 83.0442 24.375V24.2545C83.0442 22.3268 82.3146 20.8485 80.8544 19.8209ZM80.3762 24.4561C80.3762 25.7803 79.9143 26.801 78.9892 27.517C78.07 28.2283 76.9123 28.5805 75.5172 28.5747C74.1163 28.5643 72.9598 28.2063 72.0452 27.5007C71.1365 26.7952 70.6827 25.7745 70.6827 24.4399V24.2383C70.6827 22.9628 71.1342 21.9792 72.0371 21.291C72.9458 20.6017 74.1059 20.26 75.5172 20.2657C76.9228 20.2762 78.0828 20.6237 78.9974 21.3073C79.9166 21.9862 80.3762 22.9651 80.3762 24.2476V24.4573V24.4561Z" fill="#000022"/>
<path d="M94.5784 25.2323C94.5784 26.3897 94.284 27.232 93.6941 27.7602C93.1041 28.2874 92.2455 28.5515 91.1145 28.5515C89.9835 28.5515 89.119 28.2874 88.4221 27.7602C87.7298 27.2273 87.3842 26.3839 87.3842 25.2323V18.5129H84.8209V25.208C84.8209 26.9852 85.405 28.3152 86.5732 29.198C87.7414 30.0761 89.2714 30.5141 91.1645 30.5141C93.0576 30.5141 94.5551 30.0588 95.593 29.1493C96.6308 28.2399 97.1451 26.9261 97.1335 25.208V18.5129H94.5784V25.2323Z" fill="#000022"/>
<path d="M110.176 19.5706C109.5 18.8651 108.443 18.5129 107.005 18.5129H99.9807V30.2719H102.552V26.7268H106.972C108.443 26.7268 109.514 26.3526 110.184 25.6042C110.86 24.85 111.198 23.8549 111.198 22.6164C111.198 21.2922 110.857 20.2773 110.176 19.5718V19.5706ZM108.123 24.2383C107.782 24.6148 107.239 24.8037 106.493 24.8037H102.551V20.531H106.493C107.239 20.531 107.782 20.7118 108.123 21.0721C108.469 21.4324 108.642 21.9607 108.642 22.6546C108.642 23.3486 108.469 23.8549 108.123 24.2372V24.2383Z" fill="#000022"/>
</svg>
