<svg width="52" height="52" viewBox="0 0 52 52" fill="none" xmlns="http://www.w3.org/2000/svg">
<rect x="1" y="1" width="50" height="50" rx="25" fill="#FF6600"/>
<rect x="1" y="1" width="50" height="50" rx="25" stroke="white" stroke-width="2"/>
<path d="M37.4286 37.3452C34.571 40.1905 30.9079 41.7416 27.1712 41.9985C26.6443 42.0346 26.3344 41.4199 26.672 41.0165C28.6868 38.6009 31.3178 35.0377 33.7679 30.0001C33.8692 29.7924 34.079 29.6592 34.3105 29.6592H40.9434C41.3462 29.6592 41.6331 30.0434 41.5222 30.4287C40.7963 32.9619 39.4314 35.351 37.4286 37.3452Z" fill="white"/>
<path d="M41.4105 28.5779H35.0416C34.6895 28.5779 34.4556 28.2129 34.6039 27.8948C35.7096 25.5213 37.4881 21.7251 39.0785 18.3335C39.2883 17.8857 39.9165 17.8713 40.1553 18.3035C41.8156 21.3097 42.4342 24.7349 42.0085 28.0532C41.9699 28.3534 41.7131 28.5779 41.4093 28.5779H41.4105Z" fill="white"/>
<path d="M33.7721 13.0479C30.2452 14.6878 26.2843 16.5271 23.9222 17.6172C23.6027 17.7649 23.2373 17.532 23.2373 17.1814V10.7584C23.2373 10.4595 23.4592 10.2049 23.757 10.1629C27.1717 9.67549 30.7143 10.2818 33.8143 11.9818C34.2435 12.2171 34.217 12.8414 33.7733 13.0479H33.7721Z" fill="white"/>
<path d="M21.8132 18.4881C16.8816 20.8892 13.3777 23.4296 10.989 25.4033C10.5827 25.7395 9.96535 25.4309 10.0015 24.9063C10.2596 21.1845 11.8174 17.536 14.6751 14.6919C16.6127 12.7626 18.9206 11.4288 21.3719 10.6892C21.7602 10.5728 22.152 10.8597 22.152 11.2643V17.949C22.152 18.1783 22.0194 18.3872 21.812 18.4893L21.8132 18.4881Z" fill="white"/>
<path d="M19.0525 39.6647C18.903 40.008 18.5183 40.1821 18.1916 39.9996C16.9315 39.2973 15.7463 38.4113 14.6755 37.3452C13.524 36.1986 12.5835 34.9213 11.8541 33.561C11.6792 33.2345 11.8528 32.8491 12.1977 32.7122C14.8094 31.6833 17.8793 30.6617 20.8045 30.3039C21.2192 30.2535 21.5508 30.586 21.5038 31.0002C21.2096 33.5886 20.1377 37.1711 19.0525 39.6635V39.6647Z" fill="white"/>
<path d="M32.6998 28.5077C29.5021 28.7022 26.337 28.7683 23.3443 29.1404C22.956 29.1885 22.6244 28.8607 22.6726 28.4729C23.0332 25.6 23.1996 22.5818 23.3382 19.4951C23.3491 19.2526 23.4733 19.0509 23.6855 18.9525C27.0303 17.4098 35.4743 13.4491 39.9802 11.3517C40.4903 11.114 41.0196 11.6411 40.7809 12.1501C38.7118 16.555 34.7484 24.9325 33.2448 28.1608C33.1459 28.3733 32.9928 28.4885 32.6986 28.5065L32.6998 28.5077Z" fill="white"/>
</svg>
