<svg width="128" height="36" viewBox="0 0 128 36" fill="none" xmlns="http://www.w3.org/2000/svg">
<path d="M30.8576 30.763C27.6427 33.964 23.5216 35.709 19.3178 35.9981C18.7251 36.0386 18.3764 35.3471 18.7563 34.8932C21.023 32.1758 23.9829 28.1671 26.7393 22.4998C26.8532 22.2661 27.0892 22.1162 27.3497 22.1162H34.8118C35.2649 22.1162 35.5877 22.5484 35.4629 22.982C34.6463 25.8318 33.1108 28.5196 30.8576 30.763Z" fill="url(#paint0_linear_0_1184)"/>
<path d="M35.3378 20.8997H28.1728C27.7767 20.8997 27.5135 20.4891 27.6804 20.1312C28.9243 17.461 30.9251 13.1903 32.7144 9.3747C32.9504 8.87092 33.6571 8.85471 33.9257 9.34094C35.7936 12.7229 36.4895 16.5763 36.0107 20.3095C35.9672 20.6471 35.6783 20.8997 35.3365 20.8997H35.3378Z" fill="url(#paint1_linear_0_1184)"/>
<path d="M26.7431 3.42936C22.7753 5.27433 18.3192 7.3435 15.6619 8.56988C15.3024 8.73601 14.8914 8.47399 14.8914 8.0796V0.853692C14.8914 0.517384 15.141 0.231048 15.476 0.183776C19.3176 -0.364583 23.303 0.317489 26.7906 2.22999C27.2735 2.49472 27.2437 3.19705 26.7445 3.42936H26.7431Z" fill="url(#paint2_linear_0_1184)"/>
<path d="M13.29 9.54876C7.74191 12.25 3.79992 15.108 1.11269 17.3284C0.655545 17.7066 -0.0389845 17.3595 0.00171058 16.7693C0.292002 12.5823 2.0446 8.47771 5.25951 5.27805C7.43941 3.10757 10.0358 1.60701 12.7935 0.775021C13.2303 0.64401 13.6712 0.966812 13.6712 1.42198V8.94232C13.6712 9.2003 13.522 9.43531 13.2887 9.55011L13.29 9.54876Z" fill="url(#paint3_linear_0_1184)"/>
<path d="M10.1841 33.373C10.0159 33.7593 9.5832 33.9552 9.21559 33.7499C7.79804 32.9598 6.4646 31.963 5.26003 30.7636C3.96457 29.4738 2.90649 28.0367 2.08581 26.5064C1.88912 26.139 2.08445 25.7055 2.47241 25.5515C5.4106 24.394 8.86425 23.2446 12.1551 22.8421C12.6218 22.7854 12.9948 23.1595 12.9419 23.6255C12.6109 26.5375 11.405 30.5678 10.1841 33.3717V33.373Z" fill="url(#paint4_linear_0_1184)"/>
<path d="M25.5384 20.8218C21.9409 21.0406 18.3801 21.1149 15.0133 21.5336C14.5765 21.5876 14.2034 21.2189 14.2577 20.7826C14.6633 17.5506 14.8505 14.1551 15.0065 10.6826C15.0187 10.4097 15.1584 10.1828 15.3972 10.0721C19.1601 8.33651 28.6597 3.88076 33.7289 1.5212C34.3027 1.25377 34.8982 1.8467 34.6297 2.41937C32.3019 7.37486 27.8431 16.7996 26.1515 20.4315C26.0403 20.6705 25.868 20.8002 25.537 20.8205L25.5384 20.8218Z" fill="url(#paint5_linear_0_1184)"/>
<path d="M49.5657 10.4957L50.8954 9.44383L56.8473 15.394H60.804L53.1154 7.68798L60.4773 1.86182H56.7442L49.5657 7.40134V1.86182H46.6065V15.394H49.5657V10.4957Z" fill="#000022"/>
<path d="M64.7528 1.86182H61.7654V15.394H64.7528V1.86182Z" fill="#000022"/>
<path d="M71.9968 15.394H74.9828V4.30561H80.4165V1.86182H66.5644V4.30561H71.9968V15.394Z" fill="#000022"/>
<path d="M93.8481 13.0515H85.1298V9.60382H92.8679V7.40134H85.1298V4.26828H93.7276V1.86182H82.3018V15.394H93.8481V13.0515Z" fill="#000022"/>
<path d="M53.9443 29.5688H59.0593V31.3526C58.742 31.5446 58.1635 31.7712 57.3226 32.0312C56.483 32.2859 55.3971 32.4125 54.0648 32.4125C52.4031 32.4125 51.0494 32.0219 50.0049 31.242C48.9659 30.4607 48.4463 29.2741 48.4463 27.6823V27.4503C48.4463 25.9264 48.9632 24.7892 49.9956 24.0399C51.0293 23.284 52.3482 22.9053 53.9537 22.9053C55.3971 22.9053 56.5018 23.0947 57.2677 23.472C58.0336 23.8439 58.5183 24.4012 58.7245 25.1452L58.7527 25.2665H61.6088L61.5713 24.9785C61.3785 23.5226 60.6447 22.4254 59.3686 21.6881C58.0992 20.9508 56.3224 20.5829 54.038 20.5829C51.593 20.5829 49.5363 21.1615 47.8679 22.3214C46.2048 23.472 45.3746 25.1878 45.3746 27.4676V27.6063C45.3746 29.9914 46.1968 31.7673 47.8384 32.9325C49.4881 34.0911 51.5408 34.671 53.9992 34.671C56.0894 34.671 57.7739 34.439 59.0486 33.9737C60.3247 33.5084 61.2727 33.0231 61.8953 32.5152V27.4783L53.9416 27.4876V29.5701L53.9443 29.5688Z" fill="#000022"/>
<path d="M75.7112 28.4155C76.532 27.6169 76.9431 26.5357 76.9431 25.1718C76.9431 23.8079 76.5441 22.7734 75.7487 22.0121C74.952 21.2442 73.8259 20.8602 72.369 20.8602H64.0806V34.3924H67.0398V29.6248H71.7183L74.6842 34.3924H78.017L74.5329 29.2048C74.9774 29.0102 75.3711 28.7475 75.7112 28.4155ZM67.0398 23.1187H71.8562C72.5351 23.1187 73.0546 23.3173 73.4148 23.7133C73.7763 24.1039 73.9558 24.6332 73.9558 25.3025C73.9558 25.9717 73.775 26.4824 73.4148 26.8917C73.06 27.2943 72.5404 27.4956 71.8562 27.4956H67.0398V23.1187Z" fill="#000022"/>
<path d="M93.0554 22.3654C91.3816 21.1762 89.3276 20.5815 86.8946 20.5815C84.4616 20.5815 82.4076 21.1762 80.7526 22.3654C79.0976 23.5493 78.2701 25.2491 78.2701 27.4676V27.6063C78.2701 29.9114 79.0976 31.6646 80.7526 32.8672C82.4076 34.0697 84.4549 34.6697 86.8946 34.6697C89.3343 34.6697 91.3816 34.0684 93.0554 32.8672C94.7358 31.6646 95.5754 29.9114 95.5754 27.6063V27.4676C95.5754 25.2491 94.7358 23.548 93.0554 22.3654ZM92.5051 27.6996C92.5051 29.2235 91.9735 30.398 90.909 31.222C89.8511 32.0406 88.5188 32.4459 86.9134 32.4392C85.3012 32.4272 83.9702 32.0152 82.9178 31.2033C81.872 30.3914 81.3498 29.2168 81.3498 27.6809V27.449C81.3498 25.9811 81.8693 24.8492 82.9084 24.0572C83.9541 23.264 85.2891 22.8707 86.9134 22.8773C88.5309 22.8893 89.8659 23.2893 90.9183 24.0759C91.9761 24.8572 92.5051 25.9837 92.5051 27.4596V27.7009V27.6996Z" fill="#000022"/>
<path d="M108.849 28.5929C108.849 29.9247 108.51 30.894 107.831 31.5019C107.152 32.1086 106.164 32.4125 104.863 32.4125C103.561 32.4125 102.566 32.1086 101.764 31.5019C100.968 30.8887 100.57 29.9181 100.57 28.5929V20.8602H97.6201V28.5649C97.6201 30.61 98.2922 32.1406 99.6366 33.1565C100.981 34.167 102.742 34.671 104.92 34.671C107.099 34.671 108.822 34.147 110.017 33.1005C111.211 32.0539 111.803 30.542 111.789 28.5649V20.8602H108.849V28.5929Z" fill="#000022"/>
<path d="M126.798 22.0774C126.02 21.2655 124.805 20.8602 123.15 20.8602H115.066V34.3924H118.025V30.3127H123.112C124.805 30.3127 126.036 29.8821 126.808 29.0208C127.586 28.1529 127.975 27.0077 127.975 25.5824C127.975 24.0586 127.583 22.8907 126.798 22.0787V22.0774ZM124.436 27.449C124.044 27.8822 123.419 28.0996 122.56 28.0996H118.024V23.1827H122.56C123.419 23.1827 124.044 23.3906 124.436 23.8053C124.834 24.2199 125.034 24.8278 125.034 25.6264C125.034 26.425 124.834 27.0077 124.436 27.4476V27.449Z" fill="#000022"/>
<defs>
<linearGradient id="paint0_linear_0_1184" x1="35.49" y1="22.1162" x2="21.9045" y2="38.7074" gradientUnits="userSpaceOnUse">
<stop stop-color="#FF8533"/>
<stop offset="1" stop-color="#FF6600"/>
</linearGradient>
<linearGradient id="paint1_linear_0_1184" x1="36.1571" y1="8.98633" x2="25.0795" y2="16.5152" gradientUnits="userSpaceOnUse">
<stop stop-color="#FFC299"/>
<stop offset="1" stop-color="#FF8533"/>
</linearGradient>
<linearGradient id="paint2_linear_0_1184" x1="27.1364" y1="0.000487779" x2="18.8877" y2="11.1259" gradientUnits="userSpaceOnUse">
<stop stop-color="#FFC299"/>
<stop offset="1" stop-color="#FF8533"/>
</linearGradient>
<linearGradient id="paint3_linear_0_1184" x1="13.6712" y1="0.745604" x2="-2.7134" y2="14.176" gradientUnits="userSpaceOnUse">
<stop stop-color="#FF8533"/>
<stop offset="1" stop-color="#FF6600"/>
</linearGradient>
<linearGradient id="paint4_linear_0_1184" x1="12.9469" y1="22.8364" x2="1.96808" y2="33.2061" gradientUnits="userSpaceOnUse">
<stop stop-color="#FFC299"/>
<stop offset="1" stop-color="#FF8533"/>
</linearGradient>
<linearGradient id="paint5_linear_0_1184" x1="34.6961" y1="1.45508" x2="14.6542" y2="21.9321" gradientUnits="userSpaceOnUse">
<stop stop-color="#FF8533"/>
<stop offset="1" stop-color="#FF6600"/>
</linearGradient>
</defs>
</svg>
