<svg width="128" height="36" viewBox="0 0 128 36" fill="none" xmlns="http://www.w3.org/2000/svg">
<path d="M30.8574 30.7628C27.6425 33.9637 23.5215 35.7087 19.3177 35.9977C18.7249 36.0382 18.3763 35.3467 18.7561 34.8929C21.0228 32.1755 23.9827 28.1669 26.7391 22.4998C26.853 22.2661 27.0891 22.1162 27.3495 22.1162H34.8116C35.2646 22.1162 35.5875 22.5484 35.4627 22.9819C34.6461 25.8317 33.1105 28.5194 30.8574 30.7628Z" fill="#B2B2BF"/>
<path d="M35.3368 20.9013H28.1718C27.7757 20.9013 27.5125 20.4908 27.6794 20.1328C28.9233 17.4627 30.9241 13.1921 32.7133 9.37665C32.9494 8.87287 33.6561 8.85667 33.9247 9.34288C35.7926 12.7248 36.4884 16.5781 36.0096 20.3111C35.9662 20.6488 35.6773 20.9013 35.3354 20.9013H35.3368Z" fill="#B2B2BF"/>
<path d="M26.7433 3.42878C22.7755 5.2737 18.3195 7.34283 15.6621 8.56917C15.3026 8.7353 14.8916 8.47328 14.8916 8.07891V0.853182C14.8916 0.516882 15.1412 0.230554 15.4762 0.183283C19.3178 -0.365061 23.3032 0.316993 26.7907 2.22945C27.2737 2.49416 27.2438 3.19648 26.7446 3.42878H26.7433Z" fill="#B2B2BF"/>
<path d="M13.2899 9.54707C7.74185 12.2483 3.79989 15.1061 1.11268 17.3265C0.65554 17.7047 -0.0389842 17.3576 0.00171056 16.7674C0.292 12.5805 2.04459 8.47604 5.25947 5.27646C7.43935 3.10605 10.0357 1.60553 12.7934 0.773556C13.2302 0.642547 13.6711 0.965341 13.6711 1.42049V8.94065C13.6711 9.19861 13.5219 9.43362 13.2885 9.54842L13.2899 9.54707Z" fill="#B2B2BF"/>
<path d="M10.1841 33.3703C10.0159 33.7566 9.58314 33.9524 9.21553 33.7472C7.798 32.9571 6.46457 31.9603 5.26 30.761C3.96455 29.4711 2.90649 28.0341 2.08581 26.5039C1.88912 26.1365 2.08445 25.703 2.47241 25.549C5.41057 24.3915 8.8642 23.2422 12.155 22.8397C12.6217 22.783 12.9947 23.1571 12.9418 23.623C12.6108 26.5349 11.4049 30.5651 10.1841 33.369V33.3703Z" fill="#B2B2BF"/>
<path d="M25.5373 20.8223C21.9399 21.0411 18.3791 21.1154 15.0123 21.5341C14.5755 21.5881 14.2025 21.2194 14.2567 20.7831C14.6623 17.5511 14.8495 14.1557 15.0055 10.6833C15.0177 10.4105 15.1574 10.1836 15.3962 10.0728C19.1591 8.33731 28.6586 3.88168 33.7278 1.52217C34.3016 1.25475 34.8971 1.84767 34.6285 2.42032C32.3008 7.37569 27.842 16.8002 26.1504 20.432C26.0392 20.671 25.8669 20.8007 25.536 20.8209L25.5373 20.8223Z" fill="#B2B2BF"/>
<path d="M49.5661 10.4941L50.8957 9.44217L56.8475 15.3922H60.8043L53.1157 7.68637L60.4776 1.86035H56.7444L49.5661 7.39973V1.86035H46.6069V15.3922H49.5661V10.4941Z" fill="#B2B2BF"/>
<path d="M64.753 1.86035H61.7657V15.3922H64.753V1.86035Z" fill="#B2B2BF"/>
<path d="M71.997 15.3922H74.9829V4.30408H80.4166V1.86035H66.5646V4.30408H71.997V15.3922Z" fill="#B2B2BF"/>
<path d="M93.8481 13.0498H85.1298V9.60216H92.8679V7.39973H85.1298V4.26675H93.7276V1.86035H82.3019V15.3922H93.8481V13.0498Z" fill="#B2B2BF"/>
<path d="M53.9446 29.5666H59.0596V31.3504C58.7422 31.5424 58.1638 31.769 57.3229 32.029C56.4833 32.2836 55.3974 32.4103 54.0651 32.4103C52.4034 32.4103 51.0497 32.0197 50.0053 31.2397C48.9662 30.4585 48.4467 29.272 48.4467 27.6801V27.4482C48.4467 25.9243 48.9635 24.7871 49.9959 24.0379C51.0296 23.282 52.3485 22.9033 53.954 22.9033C55.3974 22.9033 56.5021 23.0927 57.268 23.4699C58.0339 23.8419 58.5186 24.3992 58.7248 25.1431L58.7529 25.2644H61.609L61.5715 24.9764C61.3787 23.5206 60.6449 22.4234 59.3689 21.6861C58.0995 20.9489 56.3226 20.5809 54.0383 20.5809C51.5933 20.5809 49.5366 21.1595 47.8682 22.3194C46.2052 23.4699 45.375 25.1858 45.375 27.4655V27.6042C45.375 29.9892 46.1971 31.765 47.8388 32.9302C49.4884 34.0888 51.5411 34.6687 53.9995 34.6687C56.0897 34.6687 57.7741 34.4367 59.0488 33.9714C60.3249 33.5062 61.2729 33.0209 61.8956 32.5129V27.4762L53.9419 27.4855V29.5679L53.9446 29.5666Z" fill="#B2B2BF"/>
<path d="M75.7113 28.4134C76.5321 27.6148 76.9432 26.5336 76.9432 25.1698C76.9432 23.8059 76.5442 22.7714 75.7488 22.0101C74.9521 21.2422 73.826 20.8582 72.3692 20.8582H64.0808V34.3901H67.04V29.6226H71.7184L74.6843 34.3901H78.0171L74.533 29.2026C74.9776 29.008 75.3712 28.7454 75.7113 28.4134ZM67.04 23.1167H71.8564C72.5352 23.1167 73.0548 23.3153 73.415 23.7113C73.7765 24.1019 73.9559 24.6311 73.9559 25.3004C73.9559 25.9697 73.7751 26.4803 73.415 26.8896C73.0601 27.2922 72.5406 27.4935 71.8564 27.4935H67.04V23.1167Z" fill="#B2B2BF"/>
<path d="M93.0554 22.3634C91.3816 21.1742 89.3276 20.5796 86.8946 20.5796C84.4617 20.5796 82.4077 21.1742 80.7527 22.3634C79.0977 23.5473 78.2702 25.2471 78.2702 27.4655V27.6042C78.2702 29.9092 79.0977 31.6624 80.7527 32.8649C82.4077 34.0674 84.455 34.6674 86.8946 34.6674C89.3343 34.6674 91.3816 34.0661 93.0554 32.8649C94.7358 31.6624 95.5754 29.9092 95.5754 27.6042V27.4655C95.5754 25.2471 94.7358 23.5459 93.0554 22.3634ZM92.5051 27.6975C92.5051 29.2213 91.9735 30.3958 90.909 31.2197C89.8512 32.0383 88.5189 32.4436 86.9134 32.4369C85.3012 32.4249 83.9703 32.013 82.9178 31.2011C81.8721 30.3892 81.3499 29.2146 81.3499 27.6788V27.4468C81.3499 25.979 81.8694 24.8471 82.9085 24.0552C83.9542 23.262 85.2892 22.8687 86.9134 22.8753C88.5309 22.8873 89.8659 23.2873 90.9183 24.0739C91.9761 24.8551 92.5051 25.9817 92.5051 27.4575V27.6988V27.6975Z" fill="#B2B2BF"/>
<path d="M108.849 28.5907C108.849 29.9226 108.51 30.8918 107.831 31.4997C107.152 32.1063 106.164 32.4103 104.863 32.4103C103.561 32.4103 102.566 32.1063 101.764 31.4997C100.968 30.8865 100.57 29.9159 100.57 28.5907V20.8582H97.62V28.5627C97.62 30.6078 98.2922 32.1383 99.6366 33.1542C100.981 34.1648 102.742 34.6687 104.92 34.6687C107.099 34.6687 108.822 34.1448 110.016 33.0982C111.211 32.0517 111.803 30.5398 111.789 28.5627V20.8582H108.849V28.5907Z" fill="#B2B2BF"/>
<path d="M126.798 22.0754C126.02 21.2635 124.804 20.8582 123.149 20.8582H115.066V34.3901H118.025V30.3105H123.112C124.804 30.3105 126.036 29.8799 126.807 29.0187C127.585 28.1508 127.975 27.0056 127.975 25.5804C127.975 24.0565 127.583 22.8887 126.798 22.0768V22.0754ZM124.436 27.4468C124.044 27.8801 123.418 28.0974 122.56 28.0974H118.024V23.1806H122.56C123.418 23.1806 124.044 23.3886 124.436 23.8032C124.834 24.2179 125.033 24.8258 125.033 25.6244C125.033 26.4229 124.834 27.0056 124.436 27.4455V27.4468Z" fill="#B2B2BF"/>
</svg>
