<svg width="11" height="14" viewBox="0 0 11 14" fill="none" xmlns="http://www.w3.org/2000/svg">
<path d="M4.1875 13.2495C3.22917 13.2495 2.41667 12.9162 1.75 12.2495C1.08333 11.5828 0.75 10.7703 0.75 9.81201V3.24951C0.75 2.56201 0.994792 1.97347 1.48438 1.48389C1.97396 0.994303 2.5625 0.749512 3.25 0.749512C3.9375 0.749512 4.52604 0.994303 5.01562 1.48389C5.50521 1.97347 5.75 2.56201 5.75 3.24951V8.24951H4.8125V3.24951C4.8125 2.81201 4.66146 2.44222 4.35937 2.14014C4.05729 1.83805 3.6875 1.68701 3.25 1.68701C2.8125 1.68701 2.44271 1.83805 2.14063 2.14014C1.83854 2.44222 1.6875 2.81201 1.6875 3.24951V9.81201C1.6875 10.4995 1.93229 11.0881 2.42188 11.5776C2.91146 12.0672 3.5 12.312 4.1875 12.312C4.48958 12.312 4.77354 12.2624 5.03937 12.1633C5.30479 12.0645 5.54167 11.9266 5.75 11.7495V12.8745C5.51042 12.9891 5.26042 13.0801 5 13.1476C4.73958 13.2156 4.46875 13.2495 4.1875 13.2495ZM7 10.7495H5.75C5.57292 10.7495 5.42458 10.6895 5.305 10.5695C5.185 10.4499 5.125 10.3016 5.125 10.1245C5.125 9.94743 5.185 9.7991 5.305 9.67951C5.42458 9.55951 5.57292 9.49951 5.75 9.49951H7V8.24951C7 8.07243 7.06 7.92389 7.18 7.80389C7.29958 7.6843 7.44792 7.62451 7.625 7.62451C7.80208 7.62451 7.95042 7.6843 8.07 7.80389C8.19 7.92389 8.25 8.07243 8.25 8.24951V9.49951H9.5C9.67708 9.49951 9.82542 9.55951 9.945 9.67951C10.065 9.7991 10.125 9.94743 10.125 10.1245C10.125 10.3016 10.065 10.4499 9.945 10.5695C9.82542 10.6895 9.67708 10.7495 9.5 10.7495H8.25V11.9995C8.25 12.1766 8.19 12.3249 8.07 12.4445C7.95042 12.5645 7.80208 12.6245 7.625 12.6245C7.44792 12.6245 7.29958 12.5645 7.18 12.4445C7.06 12.3249 7 12.1766 7 11.9995V10.7495ZM4.1875 9.81201V10.7495C3.75 10.7495 3.38021 10.5985 3.07813 10.2964C2.77604 9.9943 2.625 9.62451 2.625 9.18701V3.71826C2.625 3.58284 2.66938 3.47097 2.75813 3.38264C2.84646 3.29389 2.95833 3.24951 3.09375 3.24951C3.22917 3.24951 3.34125 3.29389 3.43 3.38264C3.51833 3.47097 3.5625 3.58284 3.5625 3.71826V9.18701C3.5625 9.36409 3.6225 9.51243 3.7425 9.63201C3.86208 9.75201 4.01042 9.81201 4.1875 9.81201ZM6.6875 6.37451V3.71826C6.6875 3.58284 6.73188 3.47097 6.82063 3.38264C6.90896 3.29389 7.02083 3.24951 7.15625 3.24951C7.29167 3.24951 7.40375 3.29389 7.4925 3.38264C7.58083 3.47097 7.625 3.58284 7.625 3.71826V6.37451H6.6875Z" fill="#FF6600"/>
</svg>
