<svg width="13" height="14" viewBox="0 0 13 14" fill="none" xmlns="http://www.w3.org/2000/svg">
<path fill-rule="evenodd" clip-rule="evenodd" d="M3.85692 0.749512H9.1421C11.1337 0.749512 12.7495 2.36529 12.7495 4.35692V9.6421C12.7495 11.6337 11.1337 13.2495 9.1421 13.2495H3.85692C1.86529 13.2495 0.249512 11.6337 0.249512 9.6421V4.35692C0.249512 2.36529 1.86529 0.749512 3.85692 0.749512ZM3.25633 7.03051C3.25633 8.82065 4.70936 10.2737 6.4995 10.2737C8.28964 10.2737 9.74269 8.82065 9.74269 7.03051C9.74269 5.24037 8.28964 3.78733 6.4995 3.78733C4.70936 3.78733 3.25633 5.24037 3.25633 7.03051ZM9.0956 3.66334C9.0956 4.08181 9.4327 4.41892 9.85118 4.41892C10.2697 4.41892 10.6068 4.08181 10.6068 3.66334C10.6068 3.24486 10.2697 2.90776 9.85118 2.90776C9.4327 2.90776 9.0956 3.24486 9.0956 3.66334ZM8.02331 5.5666C8.84892 6.39222 8.84891 7.73081 8.0233 8.55643C7.19768 9.38204 5.8591 9.38204 5.03348 8.55642C4.20787 7.73081 4.20786 6.39222 5.03348 5.56661C5.85909 4.74099 7.19769 4.74098 8.02331 5.5666Z" fill="#FF6600"/>
</svg>
