<svg width="15" height="16" viewBox="0 0 15 16" fill="none" xmlns="http://www.w3.org/2000/svg">
<path d="M1.41991 7.94448C1.44696 7.93095 1.47402 7.9181 1.50039 7.90592C1.95886 7.69353 2.42341 7.49467 2.88729 7.29581C2.91231 7.29581 2.95422 7.26672 2.97789 7.25725C3.01373 7.24169 3.04957 7.22681 3.08541 7.21126L3.29166 7.12265C3.4296 7.0638 3.56686 7.00495 3.70481 6.94611C3.98002 6.82841 4.25524 6.71072 4.53045 6.59235C5.08088 6.35696 5.632 6.12089 6.18243 5.8855C6.73286 5.65012 7.28397 5.41405 7.8344 5.17866C8.38483 4.94327 8.93593 4.70721 9.48636 4.47182C10.0368 4.23643 10.5879 4.00037 11.1383 3.76498C11.2607 3.71222 11.3933 3.63375 11.5245 3.61076C11.6347 3.59114 11.7422 3.55326 11.8531 3.53229C12.0634 3.49239 12.2953 3.47615 12.4968 3.56341C12.5665 3.59385 12.6307 3.63646 12.6841 3.6899C12.9397 3.94287 12.9039 4.35818 12.8498 4.71397C12.4732 7.19367 12.0965 9.67404 11.7192 12.1537C11.6678 12.494 11.5975 12.8673 11.329 13.0824C11.1018 13.2644 10.7786 13.2847 10.498 13.2076C10.2173 13.1298 9.96985 12.9668 9.72709 12.8065C8.72023 12.1395 7.71268 11.4726 6.70582 10.8057C6.46644 10.6474 6.20002 10.4404 6.20272 10.1529C6.20408 9.97978 6.30753 9.82556 6.41301 9.68825C7.28802 8.54648 8.5505 7.76185 9.48975 6.67284C9.62228 6.51929 9.72642 6.24197 9.54452 6.15336C9.43633 6.1006 9.3119 6.1723 9.21317 6.24062C7.97166 7.10303 6.73084 7.96612 5.48932 8.82854C5.08428 9.10992 4.65962 9.39942 4.1714 9.46842C3.73457 9.53065 3.29504 9.40889 2.87241 9.28443C2.51808 9.18027 2.16442 9.0734 1.81211 8.96314C1.6248 8.90497 1.43141 8.84207 1.2867 8.71017C1.14199 8.57827 1.05883 8.35641 1.14606 8.18054C1.20083 8.07029 1.307 8.00062 1.41857 7.9438L1.41991 7.94448Z" fill="#FF6600"/>
</svg>
