<svg width="20" height="20" viewBox="0 0 20 20" fill="none" xmlns="http://www.w3.org/2000/svg">
<path d="M1.56004 9.92597C1.59611 9.90793 1.63219 9.8908 1.66735 9.87456C2.27864 9.59138 2.89805 9.32622 3.51655 9.06107C3.54991 9.06107 3.60579 9.02229 3.63735 9.00967C3.68513 8.98893 3.73293 8.96908 3.78071 8.94834L4.05571 8.8302C4.23963 8.75173 4.42265 8.67327 4.60658 8.59481C4.97353 8.43788 5.34048 8.28096 5.70743 8.12313C6.44134 7.80928 7.17617 7.49452 7.91007 7.18067C8.64398 6.86682 9.37879 6.55207 10.1127 6.23822C10.8466 5.92436 11.5814 5.60961 12.3153 5.29576C13.0492 4.98191 13.784 4.66715 14.518 4.3533C14.6811 4.28296 14.8579 4.17834 15.0328 4.14768C15.1797 4.12152 15.3231 4.07102 15.4709 4.04306C15.7513 3.98985 16.0606 3.9682 16.3293 4.08455C16.4221 4.12513 16.5078 4.18195 16.579 4.2532C16.9198 4.5905 16.872 5.14424 16.7999 5.61863C16.2977 8.92489 15.7955 12.2321 15.2924 15.5383C15.2239 15.992 15.1301 16.4898 14.7722 16.7766C14.4692 17.0192 14.0383 17.0462 13.6641 16.9434C13.2899 16.8397 12.96 16.6224 12.6363 16.4086C11.2938 15.5194 9.95041 14.6301 8.60792 13.7409C8.28875 13.5299 7.93352 13.2539 7.93713 12.8706C7.93893 12.6397 8.07686 12.4341 8.21751 12.251C9.38419 10.7286 11.0675 9.68247 12.3198 8.23045C12.4965 8.02573 12.6354 7.65596 12.3929 7.53781C12.2486 7.46747 12.0827 7.56307 11.9511 7.65415C10.2957 8.80404 8.64128 9.95483 6.98593 11.1047C6.44587 11.4799 5.87966 11.8659 5.2287 11.9579C4.64626 12.0409 4.06022 11.8785 3.49671 11.7126C3.02427 11.5737 2.55272 11.4312 2.08298 11.2842C1.83323 11.2066 1.57537 11.1228 1.38243 10.9469C1.18949 10.771 1.0786 10.4752 1.19491 10.2407C1.26794 10.0937 1.4095 10.0008 1.55826 9.92507L1.56004 9.92597Z" fill="white"/>
</svg>
