<svg width="48" height="48" viewBox="0 0 48 48" fill="none" xmlns="http://www.w3.org/2000/svg">
<rect width="48" height="48" rx="24" fill="#DEF3D3"/>
<path fill-rule="evenodd" clip-rule="evenodd" d="M28.2957 32.1956L17.1479 14L15.0769 17.3802L22.326 28.941L17.8793 28.9291L19.9212 32.1956H28.2957ZM10.3397 32.1956H6L13.0316 20.7187L15.2095 24.2066L10.3397 32.1956Z" fill="#303030"/>
<path d="M28.0817 25.0243H33.4552C36.1518 25.0243 38.3378 22.5565 38.3378 19.5122C38.3378 16.4679 36.1518 14 33.4552 14L21.3066 14L23.6863 17.8809L33.4552 17.9198C34.2342 17.9198 34.8657 18.6327 34.8657 19.5122C34.8657 20.3917 34.2342 21.1046 33.4552 21.1046L25.57 21.0642L28.0817 25.0243Z" fill="#303030"/>
<path d="M32.4546 32.1968H37.5382C40.0023 32.1968 41.9998 29.717 41.9998 26.658C41.9998 23.599 40.0023 21.1192 37.5382 21.1192L25.6738 21.0654L28.0808 25.0257L37.5382 25.0579C38.25 25.0579 38.8271 25.7743 38.8271 26.658C38.8271 27.5417 38.25 28.2581 37.5382 28.2581H30.0552L32.4546 32.1968Z" fill="#303030"/>
</svg>
