<svg width="48" height="48" viewBox="0 0 48 48" fill="none" xmlns="http://www.w3.org/2000/svg">
<rect width="48" height="48" rx="24" fill="#1D1D1D"/>
<path d="M31 10H17C13.1332 10 10 13.1332 10 17V31C10 34.8668 13.1332 38 17 38H31C34.8668 38 38 34.8668 38 31V17C38 13.1332 34.8668 10 31 10ZM14.2 16.9188L15.5216 15.6L18.1592 18.2404L20.7996 15.6L22.1212 16.9188L19.4808 19.5592L22.1212 22.1996L20.7996 23.5184L18.1592 20.8808L15.5216 23.5184L14.2 22.1996L16.8404 19.5592L14.2 16.9188ZM33.3324 34.2676H31.4676V28.6676H27.7324V34.2676H25.8676V28.6676H14.6676V26.8H33.3324V34.2676ZM33.8 22.1996L32.4812 23.5184L29.8408 20.8808L27.2004 23.5184L25.8816 22.1996L28.522 19.5592L25.8816 16.9188L27.2004 15.6L29.8408 18.2404L32.4812 15.6L33.8 16.9188L31.1596 19.5592L33.8 22.1996Z" fill="white"/>
</svg>
