<svg width="48" height="48" viewBox="0 0 48 48" fill="none" xmlns="http://www.w3.org/2000/svg">
<rect width="48" height="48" rx="24" fill="#0585FF"/>
<path d="M15.3622 32.481C13.781 32.481 12.4553 32.2889 11.3852 31.9047C10.3151 31.5045 9.49254 30.9122 8.91756 30.1278C8.45605 29.4802 8.15239 28.7072 8.00658 27.8087C7.95564 27.4948 8.2074 27.2223 8.52467 27.2223H12.8093C13.0678 27.2223 13.2811 27.4097 13.382 27.6483C13.4958 27.9171 13.6607 28.1273 13.8768 28.2789C14.1962 28.487 14.6913 28.591 15.3622 28.591C16.0969 28.591 16.6319 28.495 16.9673 28.3029C17.3028 28.1108 17.4705 27.8226 17.4705 27.4384C17.4705 27.1343 17.3507 26.8861 17.1111 26.6941C16.8875 26.5019 16.5042 26.3338 15.9611 26.1898C15.434 26.0297 14.7313 25.8536 13.8528 25.6615C12.7668 25.4214 11.8164 25.1012 11.0019 24.701C10.1873 24.2848 9.54844 23.7245 9.08526 23.0201C8.63805 22.2998 8.41444 21.3713 8.41444 20.2347C8.41444 19.0821 8.70194 18.1216 9.27692 17.3532C9.85191 16.5848 10.6585 16.0005 11.6966 15.6003C12.7508 15.2001 13.9726 15 15.3622 15C16.8636 15 18.1093 15.2001 19.0996 15.6003C20.1058 16.0005 20.8805 16.5768 21.4235 17.3292C21.8724 17.9334 22.1771 18.6306 22.3377 19.4206C22.402 19.7374 22.1483 20.0186 21.8258 20.0186H17.5672C17.3036 20.0186 17.0918 19.8199 16.968 19.5865C16.8809 19.4225 16.7609 19.2864 16.608 19.1781C16.3365 18.9861 15.9212 18.89 15.3622 18.89C14.7872 18.89 14.3719 18.9861 14.1164 19.1781C13.8608 19.3703 13.7331 19.6424 13.7331 19.9946C13.7331 20.4428 13.9806 20.771 14.4757 20.9791C14.9709 21.1872 15.7854 21.3953 16.9194 21.6034C17.7021 21.7635 18.4447 21.9636 19.1475 22.2038C19.8503 22.4278 20.4731 22.74 21.0162 23.1402C21.5752 23.5404 22.0065 24.0527 22.3099 24.677C22.6293 25.2853 22.7891 26.0377 22.7891 26.9341C22.7891 28.1348 22.4856 29.1513 21.8787 29.9838C21.2877 30.8161 20.4333 31.4405 19.3152 31.8567C18.2132 32.2729 16.8955 32.481 15.3622 32.481Z" fill="white"/>
<path d="M26.1596 28.5501C26.1342 28.5351 26.1051 28.527 26.0756 28.5291C25.8194 28.548 25.1401 28.6942 25.2404 28.5272L27.8723 23.9295C27.9756 23.7575 27.974 23.5419 27.8682 23.3715L24.006 16.5463C23.8955 16.3682 24.237 15.9838 24.4462 15.9838H27.9432C28.0372 15.9838 28.7364 15.9029 28.7845 15.9838L31.1213 19.3892C31.3272 19.7357 31.8271 19.7377 32.0357 19.3928L34.1842 15.8416C34.2326 15.7617 34.319 15.7129 34.4122 15.7129H39.486C39.695 15.7129 39.8228 15.943 39.7127 16.1211L35.2572 23.3265C35.1525 23.4958 35.1504 23.7094 35.2518 23.8808L39.9619 31.8432C40.0674 32.0215 39.9392 32.2469 39.7325 32.2469H34.5133C34.4164 32.2469 34.3271 32.1943 34.2801 32.1093L31.9929 27.5001C31.7943 27.1412 31.2864 27.1333 31.074 27.4763C31.0644 27.4918 31.0544 27.5073 31.043 27.5216L28.8927 30.2282C28.887 30.2354 28.8826 30.2449 28.8739 30.2477C28.8034 30.2702 28.496 29.9191 28.3632 29.8392C28.3379 29.824 28.3082 29.8154 28.2828 29.8004L26.1596 28.5501Z" fill="white"/>
<path fill-rule="evenodd" clip-rule="evenodd" d="M24.8604 15.7383L28.2364 15.7383C28.6097 15.7383 28.9571 15.9294 29.1571 16.2447L31.133 19.3617C31.175 19.4243 31.2164 19.4862 31.2572 19.5474C30.616 20.2326 30.012 21.1218 29.7168 22.1444C29.4891 22.9332 29.4451 23.8031 29.7141 24.709C29.9674 25.5622 30.4905 26.4219 31.3541 27.2625L30.8994 28.0988L30.8991 28.0994C30.4511 28.9235 30.1976 29.3897 29.2461 31.1341C28.5931 30.211 27.9615 29.6153 27.1874 29.2765C26.5014 28.9763 25.7403 28.8958 24.8315 28.9113C24.8603 28.8571 24.8907 28.8026 24.923 28.7481C26.2261 26.5428 27.1413 24.931 27.5904 24.1311C27.7865 23.7818 27.7714 23.354 27.5544 23.0173L23.9443 17.4191C23.4766 16.6937 23.9972 15.7383 24.8604 15.7383ZM24.5005 29.8194C25.5318 29.778 26.2343 29.8392 26.8275 30.0987C27.4639 30.3773 28.0316 30.9119 28.7285 31.968C27.0453 34.0468 23.998 32.3241 24.5005 29.8194ZM32.2658 25.5871C33.5263 23.654 33.1724 22.5138 31.7661 20.3221C31.2597 20.8984 30.8057 21.6087 30.5792 22.3934C30.3929 23.0386 30.3604 23.7322 30.5746 24.4536C30.7608 25.0807 31.1398 25.7504 31.8017 26.4397L32.2658 25.5871Z" fill="white"/>
</svg>
