<svg width="712" height="533" viewBox="0 0 712 533" fill="none" xmlns="http://www.w3.org/2000/svg">
<g clip-path="url(#clip0_0_8565)">
<rect width="711.133" height="532.02" fill="#F8F8F8"/>
<path d="M251.635 -520.936H1209.84C1235.1 -520.936 1251.88 -494.907 1241.63 -471.962L1241.38 -471.421L950.565 152.235C938.97 177.102 914.017 192.998 886.579 192.999H-71.5059L-72.1006 192.994C-97.0273 192.589 -113.464 166.794 -103.3 144.03L-103.053 143.489L187.644 -480.163C199.056 -504.646 223.417 -520.437 250.351 -520.924L251.635 -520.936Z" stroke="#F0F0F0" stroke-width="1.98009"/>
<path d="M1020.89 232.069H1979.09C2004.35 232.069 2021.13 258.098 2010.88 281.042L2010.64 281.583L1719.82 905.24C1708.23 930.107 1683.27 946.003 1655.84 946.003H697.751L697.156 945.999C672.23 945.594 655.793 919.798 665.957 897.035L666.204 896.494L956.9 272.842C968.313 248.358 992.673 232.568 1019.61 232.081L1020.89 232.069Z" stroke="#F0F0F0" stroke-width="1.98009"/>
</g>
<defs>
<clipPath id="clip0_0_8565">
<rect width="711.133" height="532.02" fill="white"/>
</clipPath>
</defs>
</svg>
